<?xml version="1.0" encoding="UTF-8"?>
<svg width="14px" height="13px" viewBox="0 0 14 13" version="1.1" xmlns="http://www.w3.org/2000/svg" xmlns:xlink="http://www.w3.org/1999/xlink">
    <!-- Generator: Sketch 52.5 (67469) - http://www.bohemiancoding.com/sketch -->
    <title>未点赞</title>
    <desc>Created with Sketch.</desc>
    <g id="首页" stroke="none" stroke-width="1" fill="none" fill-rule="evenodd">
        <g id="H5首页-iPhone6" transform="translate(-331.000000, -448.000000)" fill="#666666" fill-rule="nonzero">
            <g id="图文模版-小" transform="translate(190.000000, 231.000000)">
                <g id="图层成组-3" transform="translate(141.000000, 217.000000)">
                    <path d="M6.97670381,13 C6.65055717,13 6.32441053,12.8719339 6.04485627,12.6158017 C4.3675307,10.9765556 1.50209951,8.18471454 1.22254524,7.87735589 C0.290697703,6.85282707 -0.128633691,5.44409994 0.0344396291,4.00975959 C0.267401514,1.98631517 1.78165377,0.295842614 3.64534885,0.0397104082 C4.88004684,-0.139582136 6.09144865,0.295842614 7,1.19230533 C7.90855135,0.295842614 9.11995316,-0.113968915 10.3546511,0.0397104082 C12.2416424,0.295842614 13.7093023,1.93508873 13.9655604,4.00975959 C14.1286337,5.44409994 13.7093023,6.85282707 12.7774548,7.87735589 C12.4513081,8.18471454 9.58587693,10.9765556 7.90855135,12.6158017 C7.62899709,12.8719339 7.30285045,13 6.97670381,13 Z M1.94598757,7.15594083 C2.13060903,7.36179726 3.95374593,9.16304104 6.69999013,11.8649067 C6.88461159,12.0450311 7.13846609,12.0450311 7.30000987,11.8649067 C10.0924094,9.13730899 11.869391,7.36179726 12.0540124,7.15594083 C12.7694206,6.35824716 13.0925081,5.25176883 12.9771197,4.11955846 C12.7924983,2.52417111 11.6386141,1.23756841 10.2077978,1.03171197 C9.12314677,0.877319649 8.08465107,1.31476457 7.34616523,2.21538646 C7.16154378,2.44697494 6.83845622,2.44697494 6.65383477,2.21538646 C5.93842661,1.28903251 4.89993091,0.877319649 3.79220216,1.03171197 C2.36138585,1.23756841 1.20750174,2.52417111 1.02288028,4.11955846 C0.907491868,5.25176883 1.23057942,6.35824716 1.94598757,7.15594083 Z" id="未点赞"></path>
                </g>
            </g>
        </g>
    </g>
</svg>